<svg width="52" height="52" viewBox="0 0 52 52" fill="none" xmlns="http://www.w3.org/2000/svg">
<path d="M26 0C28.941 5.15399e-07 31.3251 2.38416 31.3252 5.3252V20.6748H46.6748C49.6158 20.6749 52 23.059 52 26C52 28.941 49.6158 31.3251 46.6748 31.3252H31.3252V46.6748C31.3251 49.6158 28.941 52 26 52C23.059 52 20.6749 49.6158 20.6748 46.6748V31.3252H5.3252C2.38416 31.3251 0 28.941 0 26C5.15399e-07 23.059 2.38416 20.6749 5.3252 20.6748H20.6748V5.3252C20.6749 2.38416 23.059 0 26 0Z" fill="#FF00EA" fill-opacity="0.8"/>
</svg>
