<svg width="52" height="52" viewBox="0 0 52 52" fill="none" xmlns="http://www.w3.org/2000/svg">
<mask id="mask0_2079_3501" style="mask-type:alpha" maskUnits="userSpaceOnUse" x="0" y="0" width="52" height="52">
<rect width="52" height="52" fill="#D9D9D9"/>
</mask>
<g mask="url(#mask0_2079_3501)">
<path d="M20.0423 47.6666L19.1756 40.7333C18.7061 40.5527 18.2638 40.336 17.8485 40.0832C17.4332 39.8305 17.027 39.5596 16.6298 39.2707L10.1839 41.9791L4.22559 31.6874L9.80475 27.4624C9.76864 27.2096 9.75059 26.9659 9.75059 26.7312V25.2687C9.75059 25.0339 9.76864 24.7902 9.80475 24.5374L4.22559 20.3124L10.1839 10.0208L16.6298 12.7291C17.027 12.4402 17.4423 12.1694 17.8756 11.9166C18.3089 11.6638 18.7423 11.4471 19.1756 11.2666L20.0423 4.33325H31.9589L32.8256 11.2666C33.295 11.4471 33.7374 11.6638 34.1527 11.9166C34.5679 12.1694 34.9742 12.4402 35.3714 12.7291L41.8172 10.0208L47.7756 20.3124L42.1964 24.5374C42.2325 24.7902 42.2506 25.0339 42.2506 25.2687V26.7312C42.2506 26.9659 42.2145 27.2096 42.1423 27.4624L47.7214 31.6874L41.7631 41.9791L35.3714 39.2707C34.9742 39.5596 34.5589 39.8305 34.1256 40.0832C33.6923 40.336 33.2589 40.5527 32.8256 40.7333L31.9589 47.6666H20.0423ZM23.8339 43.3332H28.1131L28.8714 37.5916C29.9909 37.3027 31.0291 36.8784 31.986 36.3187C32.9429 35.7589 33.8186 35.0819 34.6131 34.2874L39.9756 36.5083L42.0881 32.8249L37.4297 29.3041C37.6103 28.7985 37.7367 28.2659 37.8089 27.7062C37.8811 27.1464 37.9173 26.5777 37.9173 25.9999C37.9173 25.4221 37.8811 24.8534 37.8089 24.2937C37.7367 23.7339 37.6103 23.2013 37.4297 22.6958L42.0881 19.1749L39.9756 15.4916L34.6131 17.7666C33.8186 16.936 32.9429 16.2409 31.986 15.6812C31.0291 15.1214 29.9909 14.6971 28.8714 14.4083L28.1673 8.66658H23.8881L23.1298 14.4083C22.0103 14.6971 20.9721 15.1214 20.0152 15.6812C19.0582 16.2409 18.1825 16.918 17.3881 17.7124L12.0256 15.4916L9.91309 19.1749L14.5714 22.6416C14.3909 23.1833 14.2645 23.7249 14.1923 24.2666C14.12 24.8083 14.0839 25.386 14.0839 25.9999C14.0839 26.5777 14.12 27.1374 14.1923 27.6791C14.2645 28.2208 14.3909 28.7624 14.5714 29.3041L9.91309 32.8249L12.0256 36.5083L17.3881 34.2332C18.1825 35.0638 19.0582 35.7589 20.0152 36.3187C20.9721 36.8784 22.0103 37.3027 23.1298 37.5916L23.8339 43.3332ZM26.1089 33.5833C28.2034 33.5833 29.9909 32.843 31.4714 31.3624C32.952 29.8819 33.6923 28.0944 33.6923 25.9999C33.6923 23.9055 32.952 22.118 31.4714 20.6374C29.9909 19.1569 28.2034 18.4166 26.1089 18.4166C23.9784 18.4166 22.1818 19.1569 20.7193 20.6374C19.2568 22.118 18.5256 23.9055 18.5256 25.9999C18.5256 28.0944 19.2568 29.8819 20.7193 31.3624C22.1818 32.843 23.9784 33.5833 26.1089 33.5833Z" fill="#1C1B1F"/>
</g>
</svg>
