<svg width="52" height="52" viewBox="0 0 52 52" fill="none" xmlns="http://www.w3.org/2000/svg">
<mask id="mask0_2079_3548" style="mask-type:alpha" maskUnits="userSpaceOnUse" x="0" y="0" width="52" height="52">
<rect width="52" height="52" fill="#D9D9D9"/>
</mask>
<g mask="url(#mask0_2079_3548)">
<path d="M19.5003 43.3334C18.8142 43.3334 18.2003 43.1348 17.6587 42.7376C17.117 42.3404 16.7198 41.8348 16.467 41.2209L11.4837 28.1667H2.16699V23.8334H14.517L19.5003 37.0501L29.467 10.7792C29.7198 10.1654 30.117 9.6598 30.6587 9.26258C31.2003 8.86536 31.8142 8.66675 32.5003 8.66675C33.1864 8.66675 33.8003 8.86536 34.342 9.26258C34.8837 9.6598 35.2809 10.1654 35.5337 10.7792L40.517 23.8334H49.8337V28.1667H37.4837L32.5003 14.9501L22.5337 41.2209C22.2809 41.8348 21.8837 42.3404 21.342 42.7376C20.8003 43.1348 20.1864 43.3334 19.5003 43.3334Z" fill="#E00ECE"/>
</g>
</svg>
